<svg xmlns="http://www.w3.org/2000/svg" viewBox="0 0 1017.9 321.4"><style type="text/css">  
	.st0{fill:#D9D9D9;}
</style><path class="st0" d="M170 232.1c-4.9 0-8.9-4-8.9-8.9v-44.3c0-39.5-32.1-71.6-71.6-71.6 -6.2 0-12.3 0.8-18 2.3v113.6c0 4.9-4 8.9-8.9 8.9H8.9c-4.9 0-8.9-4-8.9-8.9v-44.3c0-36.6 22.1-68.1 53.6-81.9V17.9H17.9v80.6c0 4.9-4 8.9-8.9 8.9S0 103.4 0 98.4V8.9C0 4 4 0 8.9 0H62.5c4.9 0 8.9 4 8.9 8.9V91.3c5.8-1.2 11.9-1.8 18-1.8 49.3 0 89.5 40.1 89.5 89.5v44.3C178.9 228.2 174.9 232.1 170 232.1zM17.9 214.3h35.7v-97.3c-21.3 12.4-35.7 35.5-35.7 62V214.3z"/><path class="st0" d="M375 232.1h-35.7c-4.9 0-8.9-4-8.9-8.9V187.5c0-4.9 4-8.9 8.9-8.9s8.9 4 8.9 8.9v26.8h17.9v-71.4c0-39.4-32-71.4-71.4-71.4 -39.4 0-71.4 32-71.4 71.4 0 39.4 32 71.4 71.4 71.4h8.9c4.9 0 8.9 4 8.9 8.9s-4 8.9-8.9 8.9h-8.9c-49.2 0-89.3-40-89.3-89.3 0-49.2 40.1-89.3 89.3-89.3s89.3 40.1 89.3 89.3v80.4C383.9 228.2 379.9 232.1 375 232.1z"/><path class="st0" d="M482.1 232.1h-53.6c-4.9 0-8.9-4-8.9-8.9V89.3c0-4.9 4-8.9 8.9-8.9s8.9 4 8.9 8.9v125h35.7v-125c0-9.8-8-17.9-17.9-17.9 -19.7 0-35.7-16-35.7-35.7S435.7 0 455.4 0s35.7 16 35.7 35.7c0 4.9-4 8.9-8.9 8.9s-8.9-4-8.9-8.9c0-9.8-8-17.9-17.9-17.9s-17.9 8-17.9 17.9 8 17.9 17.9 17.9c19.7 0 35.7 16 35.7 35.7v133.9C491.1 228.2 487.1 232.1 482.1 232.1z"/><path class="st0" d="M589.3 232.1c-34.5 0-62.5-28-62.5-62.5V8.9c0-4.9 4-8.9 8.9-8.9h53.6c4.9 0 8.9 4 8.9 8.9v160.7c0 4.9-4 8.9-8.9 8.9s-8.9-4-8.9-8.9V17.9h-35.7v151.8c0 24.6 20 44.6 44.6 44.6 4.9 0 8.9 4 8.9 8.9S594.2 232.1 589.3 232.1z"/><path class="st0" d="M723.2 232.1c-49.2 0-89.3-40-89.3-89.3 0-49.2 40.1-89.3 89.3-89.3s89.3 40.1 89.3 89.3c0 4.9-4 8.9-8.9 8.9h-125c-4.9 0-8.9-4-8.9-8.9 0-29.5 24-53.6 53.6-53.6 17 0 32.6 7.8 42.9 21.4 3 3.9 2.2 9.5-1.8 12.5 -3.9 3-9.5 2.2-12.5-1.8 -6.8-9.1-17.2-14.3-28.6-14.3 -16.6 0-30.6 11.4-34.6 26.8h105.5c-4.4-35.2-34.5-62.5-70.9-62.5 -39.4 0-71.4 32-71.4 71.4 0 39.4 32 71.4 71.4 71.4 27.3 0 51.8-15.2 64-39.7 2.2-4.4 7.6-6.2 12-4 4.4 2.2 6.2 7.6 4 12C788 213.1 757.4 232.1 723.2 232.1z"/><path class="st0" d="M892.9 321.4c-4.9 0-8.9-4-8.9-8.9s4-8.9 8.9-8.9c29.5 0 53.6-24 53.6-53.6v-19.6c-5.8 1.2-11.7 1.8-17.9 1.8 -49.2 0-89.3-40-89.3-89.3V98.2c0-4.9 4-8.9 8.9-8.9h53.6c4.9 0 8.9 4 8.9 8.9s-4 8.9-8.9 8.9h-44.6v35.7c0 39.4 32 71.4 71.4 71.4 6.2 0 12.2-0.8 17.9-2.3V98c0-4.9 4-8.9 8.9-8.9h53.6c4.9 0 8.9 4 8.9 8.9v44.9c0 36.5-22.1 68-53.6 81.8V250C964.3 289.4 932.2 321.4 892.9 321.4zM964.3 106.9v97.8c21.3-12.4 35.7-35.5 35.7-61.8v-35.9H964.3z"/></svg>
